<svg width="32" height="32" viewBox="0 0 32 32" fill="none" xmlns="http://www.w3.org/2000/svg">
<path d="M28.0663 15.5959C28.1101 15.6381 28.1101 15.7075 28.0663 15.7497L24.3738 19.311C24.33 19.3532 24.2581 19.3532 24.2143 19.311L20.5187 15.7467C20.4749 15.7045 20.4749 15.6351 20.5187 15.5929L24.2112 12.0317C24.255 11.9894 24.3269 11.9894 24.3707 12.0317L28.0663 15.5959Z" fill="#BFDBFE"/>
<path d="M13.077 13.2514C12.9989 13.3268 12.8676 13.3268 12.7894 13.2514L9.20316 9.79269C9.12499 9.7173 9.12499 9.59065 9.20316 9.51527L12.7894 6.05654C12.8676 5.98115 12.9989 5.98115 13.077 6.05654L16.6633 9.51527C16.7414 9.59065 16.7414 9.7173 16.6633 9.79269L13.077 13.2514Z" fill="#3B82F6"/>
<path d="M6.91453 19.1889C6.852 19.2492 6.75508 19.2492 6.69254 19.1889L3.0469 15.6698C2.98437 15.6095 2.98437 15.5161 3.0469 15.4557L6.69567 11.9367C6.7582 11.8764 6.85513 11.8764 6.91766 11.9367L10.5664 15.4557C10.629 15.5161 10.629 15.6095 10.5664 15.6698L6.91766 19.1889H6.91453Z" fill="#3B82F6"/>
<path d="M16.6884 21.375C16.7353 21.4203 16.7353 21.4926 16.6884 21.5379L13.0115 25.072C12.9646 25.1172 12.8895 25.1172 12.8426 25.072L9.17824 21.5258C9.13134 21.4806 9.13134 21.4082 9.17824 21.363L12.8552 17.8288C12.9021 17.7836 12.9771 17.7836 13.024 17.8288L16.6884 21.375Z" fill="#3B82F6"/>
</svg>
