<svg width="190" height="156" viewBox="0 0 190 156" fill="none" xmlns="http://www.w3.org/2000/svg">
<path d="M82.2246 59.1913C81.5934 59.8036 80.5331 59.8036 79.9019 59.1913L50.945 31.102C50.3139 30.4898 50.3139 29.4613 50.945 28.849L79.9019 0.759713C80.5331 0.147479 81.5934 0.147479 82.2246 0.759713L111.181 28.849C111.813 29.4613 111.813 30.4898 111.181 31.102L82.2246 59.1913Z" fill="#3B82F6"/>
<path d="M32.4661 107.411C31.9612 107.9 31.1786 107.9 30.6737 107.411L1.23709 78.8314C0.73217 78.3416 0.73217 77.5825 1.23709 77.0927L30.6989 48.5136C31.2038 48.0238 31.9864 48.0238 32.4914 48.5136L61.9532 77.0927C62.4581 77.5825 62.4581 78.3416 61.9532 78.8314L32.4914 107.411H32.4661Z" fill="#3B82F6"/>
<path d="M111.384 125.166C111.763 125.533 111.763 126.121 111.384 126.488L81.6953 155.19C81.3166 155.557 80.7107 155.557 80.332 155.19L50.744 126.39C50.3653 126.023 50.3653 125.435 50.744 125.068L80.433 96.3662C80.8117 95.9989 81.4176 95.9989 81.7963 96.3662L111.384 125.166Z" fill="#3B82F6"/>
<path d="M188.876 77.2706C189.23 77.6134 189.23 78.1767 188.876 78.5195L159.061 107.442C158.708 107.784 158.127 107.784 157.774 107.442L127.933 78.4951C127.58 78.1522 127.58 77.589 127.933 77.2461L157.748 48.3242C158.102 47.9813 158.682 47.9813 159.036 48.3242L188.876 77.2706Z" fill="#BFDBFE"/>
</svg>
