<svg width="128" height="28" viewBox="0 0 128 28" fill="none" xmlns="http://www.w3.org/2000/svg">
<g id="Layer 2">
<g id="Group">
<path id="Vector" d="M65.9657 4.45031L63.2346 7.12049C63.1222 7.22955 62.9409 7.23307 62.8248 7.12401L59.5642 4C59.4808 3.93668 59.4119 3.8628 59.3611 3.77836C59.2958 3.66931 59.3031 3.5708 59.3865 3.47581L59.8508 2.93052L61.2326 1.57608L62.8284 0.0738786C62.93 -0.0246262 63.0932 -0.0246262 63.1947 0.0738786L66.6693 3.44415C66.7273 3.50044 66.7346 3.56376 66.6947 3.63764C66.5097 3.95075 66.2667 4.22164 65.9657 4.45031Z" fill="#3B82F6"/>
<path id="Vector_2" d="M117.05 4.16892C117.05 5.68871 115.777 6.92354 114.21 6.92354C112.644 6.92354 111.371 5.68871 111.371 4.16892C111.371 2.64914 112.644 1.41431 114.21 1.41431C115.777 1.41431 117.05 2.64914 117.05 4.16892Z" fill="#3B82F6"/>
<path id="Vector_3" d="M81.9928 23.9367C79.4503 26.0229 76.7229 26.5576 73.8395 25.5339C72.1965 24.9499 70.8002 23.7538 69.6686 21.949L68.9831 20.5981L68.5225 19.0713L68.3267 17.4635L68.3883 15.8382L68.7039 14.241L69.266 12.7248L70.0639 11.3457L71.0396 10.1883C72.396 8.8514 74.1007 8.12317 76.1426 8.00004C78.2281 7.87339 80.1684 8.60162 81.9456 10.1742C82.058 10.2727 82.1124 10.2481 82.1124 10.1038V2.01587C82.1124 1.91736 82.1922 1.83997 82.2938 1.83997H86.4683C86.588 1.83997 86.6497 1.89977 86.6497 2.01587V25.4108C86.6497 25.5269 86.588 25.5867 86.4683 25.5867H82.2938C82.1886 25.5832 82.1161 25.6183 82.1161 25.4143V23.993C82.1161 23.891 82.0725 23.8769 81.9928 23.9367ZM77.6079 22.1109C80.2373 22.1003 82.3591 19.8277 82.3482 17.0273C82.3373 14.2305 80.2011 11.9684 77.5716 11.9789C74.9421 11.9895 72.8204 14.2621 72.8312 17.0625C72.8421 19.8593 74.9784 22.1214 77.6079 22.1109Z" fill="#3B82F6"/>
<path id="Vector_4" d="M120.782 12.2251L118.878 12.2146C118.798 12.2146 118.737 12.1548 118.737 12.0774L118.744 8.57693C118.744 8.49954 118.806 8.43973 118.886 8.43973L120.779 8.4327C120.859 8.4327 120.92 8.37289 120.92 8.29549V2.24096C120.92 2.16357 120.982 2.10376 121.062 2.10376H125.316C125.396 2.10376 125.457 2.16357 125.457 2.24096V8.30253C125.457 8.37993 125.519 8.43973 125.599 8.43973H127.855C127.935 8.43621 127.996 8.49602 127.996 8.57342L128 12.0844C128 12.1618 127.938 12.2216 127.858 12.2216L125.599 12.2146C125.519 12.2146 125.457 12.2744 125.457 12.3518V25.4494C125.457 25.5268 125.396 25.5866 125.316 25.5866H121.062C120.982 25.5866 120.92 25.5268 120.92 25.4494L120.924 12.3623C120.924 12.2849 120.862 12.2251 120.782 12.2251Z" fill="#3B82F6"/>
<path id="Vector_5" d="M11.6896 14.1707C11.599 14.2586 11.4466 14.2586 11.356 14.1707L7.19593 10.1355C7.10526 10.0475 7.10526 9.89979 7.19593 9.81184L11.356 5.77666C11.4466 5.68871 11.599 5.68871 11.6896 5.77666L15.8497 9.81184C15.9404 9.89979 15.9404 10.0475 15.8497 10.1355L11.6896 14.1707Z" fill="#3B82F6"/>
<path id="Vector_6" d="M108.941 17.0273C108.941 22.03 104.759 26.0862 99.6014 26.0862C94.444 26.0862 90.2622 22.03 90.2622 17.0273C90.2622 12.0247 94.444 7.96838 99.6014 7.96838C104.759 7.96838 108.941 12.0247 108.941 17.0273ZM99.4346 22.0264C102.118 22.1179 104.371 19.9613 104.472 17.2138C104.57 14.4627 102.478 12.1619 99.7937 12.0704C97.1098 11.9789 94.8575 14.1355 94.7559 16.8831C94.658 19.6342 96.7507 21.935 99.4346 22.0264Z" fill="#3B82F6"/>
<path id="Vector_7" d="M45.5683 8.43627C45.9419 8.43627 46.3409 8.45034 46.7725 8.46793C46.8885 8.47497 46.9683 8.53126 47.0082 8.6368L50.588 17.847C50.6387 17.9842 50.6895 17.9842 50.7403 17.847L54.2148 8.56995C54.2439 8.48904 54.3019 8.45034 54.3889 8.45034H58.4474C58.5163 8.45034 58.5744 8.50663 58.5744 8.57347C58.5744 8.58754 58.5744 8.60162 58.5671 8.61569L52.2781 25.4143C52.2309 25.5339 52.1439 25.5937 52.0169 25.5937H49.5906C49.4745 25.5937 49.3729 25.5233 49.3294 25.4178C47.7844 21.4424 46.5404 18.2586 45.6155 15.898C45.6119 15.8839 45.6046 15.8734 45.5974 15.8699C45.5865 15.8628 45.572 15.8593 45.5575 15.8593C45.543 15.8593 45.5285 15.8628 45.5176 15.8699C45.5103 15.8734 45.5031 15.8839 45.4994 15.898C44.4912 18.4521 43.2399 21.6289 41.7565 25.4072C41.713 25.5128 41.6114 25.5832 41.4954 25.5832L39.069 25.5761C38.942 25.5761 38.855 25.5163 38.8078 25.3967L32.5732 8.57699C32.5515 8.51367 32.5877 8.44331 32.653 8.4222C32.6639 8.41868 32.6784 8.41516 32.6929 8.41516L36.7514 8.42572C36.8384 8.42572 36.8965 8.46441 36.9255 8.54533L40.371 17.8329C40.4218 17.9701 40.4726 17.9666 40.5234 17.8329L44.1321 8.63328C44.172 8.52774 44.2518 8.47145 44.3679 8.46441C44.7958 8.44682 45.1984 8.43627 45.5683 8.43627Z" fill="#3B82F6"/>
<path id="Vector_8" d="M65.1606 25.4424C65.1606 25.5198 65.0953 25.5832 65.0155 25.5832H60.772C60.6922 25.5832 60.627 25.5198 60.627 25.4424V8.577C60.627 8.4996 60.6922 8.43628 60.772 8.43628H65.0155C65.0953 8.43628 65.1606 8.4996 65.1606 8.577V25.4424Z" fill="#3B82F6"/>
<path id="Vector_9" d="M116.481 25.4388C116.481 25.5197 116.412 25.5866 116.329 25.5866H112.1C112.016 25.5866 111.947 25.5197 111.947 25.4388V8.58745C111.947 8.50654 112.016 8.4397 112.1 8.4397H116.329C116.412 8.4397 116.481 8.50654 116.481 8.58745V25.4388Z" fill="#3B82F6"/>
<path id="Vector_10" d="M4.54086 21.0976C4.46832 21.168 4.35589 21.168 4.28335 21.0976L0.0544033 16.9921C-0.0181344 16.9217 -0.0181344 16.8127 0.0544033 16.7423L4.28698 12.6368C4.35951 12.5664 4.47195 12.5664 4.54449 12.6368L8.77706 16.7423C8.8496 16.8127 8.8496 16.9217 8.77706 16.9921L4.54449 21.0976H4.54086Z" fill="#3B82F6"/>
<path id="Vector_11" d="M15.8786 23.6482C15.933 23.701 15.933 23.7854 15.8786 23.8382L11.6133 27.9613C11.5589 28.0141 11.4719 28.0141 11.4175 27.9613L7.16678 23.8241C7.11238 23.7713 7.11238 23.6869 7.16678 23.6341L11.432 19.511C11.4864 19.4582 11.5734 19.4582 11.6278 19.511L15.8786 23.6482Z" fill="#3B82F6"/>
</g>
</g>
</svg>
